<svg width="24" height="24" viewBox="0 0 24 24" fill="none" xmlns="http://www.w3.org/2000/svg">
<path d="M14 8C15.103 8 16 8.897 16 10V20C16 21.103 15.103 22 14 22H4C2.897 22 2 21.103 2 20V10C2 8.897 2.897 8 4 8H14Z" fill="currentColor"/>
<path d="M20 2C20.5304 2 21.039 2.21087 21.4141 2.58594C21.7891 2.96101 22 3.46957 22 4V14C22 14.5304 21.7891 15.039 21.4141 15.4141C21.039 15.7891 20.5304 16 20 16H18V8C18 7.46957 17.7891 6.96101 17.4141 6.58594C17.039 6.21086 16.5304 6 16 6H8V4C8 3.46957 8.21086 2.96101 8.58594 2.58594C8.96101 2.21086 9.46957 2 10 2H20Z" fill="currentColor"/>
</svg>
