<svg width="24" height="24" viewBox="0 0 24 24" fill="none" xmlns="http://www.w3.org/2000/svg">
<path d="M12 1.91919C10.6868 1.91919 9.38642 2.17785 8.17317 2.68039C6.95991 3.18294 5.85752 3.91954 4.92893 4.84812C3.05357 6.72349 2 9.26702 2 11.9192C2 16.3392 4.87 20.0892 8.84 21.4192C9.34 21.4992 9.5 21.1892 9.5 20.9192V19.2292C6.73 19.8292 6.14 17.8892 6.14 17.8892C5.68 16.7292 5.03 16.4192 5.03 16.4192C4.12 15.7992 5.1 15.8192 5.1 15.8192C6.1 15.8892 6.63 16.8492 6.63 16.8492C7.5 18.3692 8.97 17.9192 9.54 17.6792C9.63 17.0292 9.89 16.5892 10.17 16.3392C7.95 16.0892 5.62 15.2292 5.62 11.4192C5.62 10.3092 6 9.41919 6.65 8.70919C6.55 8.45919 6.2 7.41919 6.75 6.06919C6.75 6.06919 7.59 5.79919 9.5 7.08919C10.29 6.86919 11.15 6.75919 12 6.75919C12.85 6.75919 13.71 6.86919 14.5 7.08919C16.41 5.79919 17.25 6.06919 17.25 6.06919C17.8 7.41919 17.45 8.45919 17.35 8.70919C18 9.41919 18.38 10.3092 18.38 11.4192C18.38 15.2392 16.04 16.0792 13.81 16.3292C14.17 16.6392 14.5 17.2492 14.5 18.1792V20.9192C14.5 21.1892 14.66 21.5092 15.17 21.4192C19.14 20.0792 22 16.3392 22 11.9192C22 10.606 21.7413 9.30561 21.2388 8.09235C20.7362 6.8791 19.9997 5.77671 19.0711 4.84812C18.1425 3.91954 17.0401 3.18294 15.8268 2.68039C14.6136 2.17785 13.3132 1.91919 12 1.91919Z" fill="black"/>
</svg>
