<svg width="24" height="24" viewBox="0 0 24 24" fill="none" xmlns="http://www.w3.org/2000/svg">
<path d="M11.1373 4.00445C7.12757 4.44106 4 7.84485 4 11.9793C4 14.1062 4.8449 16.1459 6.34883 17.6499C7.85276 19.1538 9.89253 19.9987 12.0194 19.9987C16.1449 19.9987 19.5487 16.88 19.9943 12.8703C20.0745 12.1664 19.2992 11.6051 18.622 12.0239C17.8947 12.4881 17.0559 12.7484 16.1934 12.7774C15.331 12.8063 14.4766 12.603 13.7197 12.1885C12.9628 11.7741 12.3312 11.1638 11.891 10.4216C11.4508 9.67942 11.2182 8.83253 11.2175 7.9696C11.2175 7.02509 11.4937 6.13405 11.9659 5.39448C12.3669 4.79748 11.9303 3.94207 11.1373 4.00445Z" fill="black"/>
</svg>
