<svg width="32" height="32" viewBox="0 0 32 32" fill="none" xmlns="http://www.w3.org/2000/svg">
<rect width="32" height="32" rx="16" fill="#3FBF9B"/>
<g clip-path="url(#clip0_127_18)">
<path d="M25.3093 17.7885C25.7678 16.9877 26 16.0783 26 15.0866C26 15.0161 25.9987 14.9456 25.996 14.8764C25.9978 14.8486 25.9982 14.8198 25.9982 14.7915V8.17653C25.9982 6.83188 24.9042 5.73828 23.5595 5.73828H22.7484C21.9032 5.73828 21.2183 6.42363 21.2183 7.26842V9.80367C21.0512 9.7893 20.8819 9.78256 20.7094 9.78256C19.7178 9.78256 18.8088 10.0152 18.0066 10.4738C17.2036 10.9336 16.5605 11.5736 16.0943 12.3762C15.9174 12.6812 15.7736 13.0023 15.6632 13.3373C15.4166 13.1253 15.1485 12.9349 14.8588 12.7687C14.0576 12.3102 13.1531 12.078 12.1708 12.078C11.1886 12.078 10.2702 12.3106 9.46807 12.7692C8.66505 13.2291 8.02192 13.8691 7.55574 14.6716C7.44795 14.8576 7.35184 15.0507 7.2683 15.2496C6.52861 15.5276 6 16.2426 6 17.0793V17.6654C6 18.4985 6.52412 19.2108 7.25977 19.4915C7.34555 19.6986 7.4448 19.8993 7.55663 20.092C7.8279 20.5591 8.16114 20.9696 8.54873 21.323C8.31743 21.6886 8.19303 22.1202 8.20201 22.5644C8.21414 23.1635 8.47238 23.7312 8.91027 24.1219C10.0097 25.1032 11.3409 25.7742 12.7596 26.0625C13.4234 26.1968 14.1025 26.2624 14.8359 26.2624C15.3214 26.2624 15.8374 26.2323 16.3696 26.1726C18.7917 25.9009 21.0216 25.0152 22.8185 23.6113C23.9655 22.7153 24.9127 21.5673 25.5576 20.291C25.9816 19.4534 25.8495 18.495 25.2814 17.8339C25.2904 17.8186 25.3003 17.8042 25.3093 17.7889V17.7885Z" fill="#FEFEFE"/>
<path d="M23.4141 18.6272C23.6 18.5742 23.8034 18.5988 23.9597 18.6931V18.6943C24.2615 18.8771 24.3615 19.2666 24.1923 19.6007C23.648 20.6772 22.847 21.6478 21.8766 22.4059C20.3029 23.6351 18.3396 24.4123 16.1991 24.6526C15.7222 24.706 15.2695 24.7331 14.8362 24.7332C14.2083 24.7332 13.6211 24.6767 13.0637 24.5635C11.9105 24.329 10.8269 23.7816 9.92957 22.9808C9.80606 22.8704 9.73601 22.7117 9.73242 22.5334C9.72842 22.3408 9.8038 22.151 9.93445 22.0244C10.1891 21.7778 10.592 21.7802 10.8713 22.0299C11.6792 22.751 12.7076 23.2042 13.845 23.3403C15.5085 23.5393 17.3257 23.2673 18.9609 22.5743C20.8179 21.7875 22.2262 20.5278 23.0332 18.9318C23.1077 18.7845 23.243 18.6762 23.4141 18.6272Z" fill="#0551D8"/>
<path fill-rule="evenodd" clip-rule="evenodd" d="M12.1714 13.6089C12.8872 13.6089 13.53 13.7716 14.0995 14.0972C14.6684 14.4232 15.1162 14.871 15.4423 15.4399C15.6551 15.8118 15.7977 16.2181 15.8713 16.6564H16.2748L16.3602 16.6649C16.5545 16.7047 16.7008 16.877 16.7008 17.083V17.6622C16.7008 17.8975 16.51 18.0887 16.2748 18.0889H15.8738C15.801 18.5348 15.6582 18.947 15.4423 19.3242C15.1162 19.8937 14.6685 20.3414 14.0995 20.667C13.53 20.9926 12.8967 21.1559 12.1714 21.1559C11.4461 21.1559 10.7987 20.993 10.2292 20.667C9.65985 20.3414 9.21028 19.8936 8.87976 19.3242C8.68799 18.9941 8.55359 18.6371 8.47327 18.2543L8.44214 18.0889H7.95325C7.71985 18.0888 7.53044 17.8993 7.53027 17.6659V17.0793C7.53035 16.8459 7.7198 16.6564 7.95325 16.6564H8.44519C8.51975 16.2181 8.66375 15.8118 8.87976 15.4399C9.21029 14.871 9.65986 14.4232 10.2292 14.0972C10.7987 13.7716 11.4555 13.6089 12.1714 13.6089ZM12.172 15.1097C11.7768 15.1097 11.4211 15.2088 11.1045 15.4064C10.7874 15.6035 10.5414 15.8743 10.3672 16.2188C10.1926 16.5627 10.1054 16.9506 10.1053 17.3821C10.1053 17.8137 10.1925 18.1998 10.3672 18.5393C10.5414 18.8788 10.7879 19.1496 11.1045 19.3517C11.4215 19.5537 11.7779 19.6544 12.1726 19.6544C12.4381 19.6544 12.6834 19.6081 12.9093 19.5165L13.0051 19.4744C12.9795 19.4762 12.9543 19.4799 12.9282 19.4799C12.1225 19.4799 11.4593 18.6555 11.3578 17.5884L12.3478 17.1129L11.3767 16.8529C11.5088 15.9952 12.0093 15.3238 12.6407 15.1653C12.5286 15.1393 12.4134 15.121 12.2935 15.1134L12.172 15.1097Z" fill="#0551D8"/>
<path fill-rule="evenodd" clip-rule="evenodd" d="M23.5599 7.26855C24.0616 7.26855 24.4688 7.67571 24.4688 8.17737V14.7911H24.4602C24.466 14.8881 24.4694 14.9865 24.4694 15.0865C24.4694 15.8123 24.3067 16.4597 23.9811 17.0287C23.6551 17.5981 23.2072 18.0459 22.6383 18.3715C22.0689 18.697 21.4355 18.8603 20.7102 18.8604C19.9849 18.8604 19.3375 18.6975 18.7681 18.3715C18.1986 18.0459 17.7491 17.5981 17.4186 17.0287C17.088 16.4592 16.923 15.8119 16.923 15.0865C16.923 14.3614 17.0881 13.7144 17.4186 13.145C17.7491 12.576 18.1986 12.1277 18.7681 11.8016C19.3375 11.4761 19.9944 11.3134 20.7102 11.3134L20.9751 11.3207C21.5855 11.3563 22.14 11.5167 22.6383 11.8016C22.6764 11.8231 22.7121 11.8471 22.7488 11.87V7.26855H23.5599ZM20.7102 12.8142C20.3151 12.8143 19.9592 12.9133 19.6427 13.1108C19.3258 13.308 19.0802 13.5788 18.906 13.9232C18.7314 14.2672 18.6442 14.6551 18.6442 15.0865C18.6442 15.5181 18.7313 15.9042 18.906 16.2438C19.0802 16.5832 19.3262 16.8541 19.6427 17.0562C19.9597 17.2582 20.3156 17.3588 20.7102 17.3589C20.946 17.3589 21.1652 17.3183 21.37 17.246C20.6128 17.184 20.0056 16.3197 19.9521 15.2324L21.0251 14.6923L20.0205 14.4091C20.2038 13.5908 20.7138 12.9841 21.3291 12.91C21.136 12.8485 20.9303 12.8142 20.7102 12.8142Z" fill="#0551D8"/>
</g>
<defs>
<clipPath id="clip0_127_18">
<rect width="20" height="20.5237" fill="white" transform="translate(6 5.73828)"/>
</clipPath>
</defs>
</svg>
