<svg width="99" height="40" viewBox="0 0 99 40" fill="none" xmlns="http://www.w3.org/2000/svg">
<g clip-path="url(#clip0_138_34)">
<path d="M97.4807 13.5338C96.6535 12.2637 95.255 11.5057 93.7397 11.5057H92.4997C91.2746 11.5057 90.1739 12.2545 89.7252 13.3945L88.6978 16.0013L88.1583 14.5845C87.4569 12.7424 85.6615 11.5048 83.6909 11.5048H81.3334C80.7789 11.5048 80.2468 11.6641 79.7865 11.9435C79.2161 11.6649 78.5773 11.5048 77.901 11.5048H75.9113C75.4543 11.5048 75.0206 11.6082 74.6329 11.7917C74.537 11.7542 74.4402 11.7183 74.3418 11.6841C73.4378 11.3689 72.448 11.2096 71.4014 11.2096C69.596 11.2096 67.9373 11.6824 66.4721 12.6156C66.1435 12.8249 65.8325 13.0551 65.5347 13.3003V4.75253C65.5347 2.13151 63.4024 0 60.7822 0H59.2019C57.5549 0 56.2198 1.33511 56.2198 2.98211V7.92395C55.8938 7.89643 55.5635 7.88225 55.2283 7.88225C53.2952 7.88225 51.5232 8.3359 49.9612 9.22987C48.3959 10.1263 47.1426 11.3739 46.2344 12.9375C45.8892 13.5321 45.6098 14.1575 45.3938 14.8105C44.9126 14.3977 44.3906 14.0266 43.8252 13.7022C42.2633 12.8091 40.5004 12.3563 38.5865 12.3563C36.6726 12.3563 34.8814 12.8091 33.3194 13.7039C33.2018 13.7714 33.0901 13.844 32.9767 13.9149C32.88 13.5813 32.739 13.2602 32.5497 12.9642C32.0152 12.1278 31.1512 11.539 30.1789 11.348C30.1655 11.3455 30.1522 11.343 30.1388 11.3405C29.6827 11.2538 29.2074 11.2104 28.7245 11.2104C27.5453 11.2104 26.4087 11.4915 25.3455 12.0452C25.3021 12.0685 25.2579 12.0911 25.2145 12.1152C24.5549 11.7283 23.7893 11.5065 22.9754 11.5065H21.1817C20.2393 11.5065 19.4004 11.9451 18.8534 12.6273C18.0761 11.9326 17.0537 11.5065 15.9321 11.5065H14.0149C13.5579 11.5065 13.1243 11.6099 12.7365 11.7934C12.6406 11.7558 12.5439 11.72 12.4455 11.6858C11.5415 11.3706 10.5516 11.2113 9.50507 11.2113C7.69962 11.2113 6.04178 11.6841 4.57574 12.6173C3.14473 13.5279 2.00642 14.7905 1.19168 16.3683C0.401117 17.8993 0 19.6331 0 21.5211C0 23.4091 0.401117 25.1428 1.19084 26.6722C1.99058 28.2233 3.08635 29.4784 4.44732 30.4032C5.89501 31.3864 7.5245 31.8843 9.29075 31.8843C10.3106 31.8843 11.2947 31.7175 12.2162 31.3872C12.3337 31.3447 12.4497 31.3013 12.5647 31.2555C12.9875 31.4856 13.4729 31.6166 13.9882 31.6166H15.9188C17.0446 31.6166 18.0703 31.1888 18.85 30.4908C19.3962 31.1763 20.2368 31.6166 21.1817 31.6166H24.5099C26.1569 31.6166 27.492 30.2814 27.492 28.6344V25.7374C27.9006 26.2077 28.421 26.5797 29.013 26.8048C29.1798 27.2084 29.3733 27.5987 29.591 27.9756C30.1197 28.8863 30.7685 29.686 31.524 30.3748C31.0737 31.087 30.831 31.9276 30.8485 32.7916C30.8719 33.9599 31.3747 35.0673 32.2287 35.8287C34.3718 37.7409 36.9653 39.0493 39.7306 39.6106C41.0241 39.8724 42.3475 40 43.7777 40C44.7242 40 45.7299 39.9408 46.7665 39.8249C51.4873 39.2953 55.8329 37.5691 59.3345 34.833C61.4569 33.1752 63.2223 31.0703 64.4723 28.7337C65.0244 29.3725 65.6482 29.9312 66.3428 30.4032C67.7905 31.3864 69.4192 31.8843 71.1854 31.8843C72.2053 31.8843 73.1893 31.7175 74.1108 31.3872C74.2284 31.3447 74.3443 31.3013 74.4594 31.2555C74.8822 31.4856 75.3675 31.6166 75.8829 31.6166H77.821C80.2468 31.6166 82.2199 29.6427 82.2199 27.2176V24.2814L84.5415 29.7928C85.0077 30.8986 86.0901 31.6174 87.2902 31.6174H89.7594C90.9402 31.6174 92.0093 30.9211 92.4872 29.8411L97.821 17.7768C98.4339 16.3908 98.3055 14.8047 97.479 13.5354L97.4807 13.5338Z" fill="#FEFEFE"/>
<path d="M14.0154 16.4825C13.741 16.073 13.4125 15.7019 13.0222 15.3742C12.5744 14.9981 12.0557 14.7079 11.4652 14.5019C10.8748 14.2959 10.221 14.1934 9.50552 14.1934C8.27048 14.1934 7.16136 14.5069 6.17733 15.1332C5.1933 15.7595 4.41441 16.6276 3.84234 17.7367C3.26943 18.8467 2.9834 20.1084 2.9834 21.5219C2.9834 22.9354 3.26943 24.1971 3.84234 25.3062C4.41525 26.4162 5.17495 27.2926 6.12396 27.9373C7.07213 28.5811 8.12788 28.9038 9.2912 28.9038C9.97085 28.9038 10.6105 28.7962 11.2101 28.5819C11.8096 28.3667 12.355 28.0857 12.8471 27.7363C13.2949 27.4186 13.6735 27.0533 13.9879 26.6463V28.6353H15.9184C16.7048 28.6353 17.3427 27.9973 17.3427 27.2109V15.9012C17.3427 15.1215 16.7106 14.4902 15.9317 14.4902H14.0145V16.4841L14.0154 16.4825ZM12.2433 25.413C11.6529 25.7891 10.9724 25.9767 10.2035 25.9767C9.43463 25.9767 8.75832 25.7891 8.17708 25.413C7.59583 25.0369 7.14385 24.514 6.82195 23.8427C6.50006 23.1714 6.33827 22.3983 6.33827 21.5211C6.33827 20.6438 6.49922 19.9016 6.82195 19.2394C7.14385 18.5773 7.59583 18.0586 8.17708 17.6825C8.75832 17.3064 9.4338 17.1188 10.2035 17.1188C10.9732 17.1188 11.6529 17.3072 12.2433 17.6825C12.8337 18.0578 13.294 18.5773 13.6259 19.2394C13.957 19.9016 14.1221 20.6621 14.1221 21.5211C14.1221 22.38 13.9562 23.1714 13.6259 23.8427C13.2949 24.514 12.8337 25.0369 12.2433 25.413Z" fill="#22B98E"/>
<path d="M28.7245 14.1934C28.0265 14.1934 27.3602 14.3593 26.7247 14.6895C26.0893 15.0206 25.5306 15.4726 25.0469 16.0447C24.8175 16.3165 24.6232 16.6059 24.4581 16.9095L24.4465 15.9421C24.4364 15.1365 23.781 14.4877 22.9754 14.4877H21.1816V28.6336H24.5098V21.0907C24.5098 20.5904 24.5949 20.1384 24.765 19.7356C24.9351 19.3328 25.172 18.9801 25.4763 18.6757C25.7807 18.3713 26.1335 18.1345 26.5363 17.9644C26.9391 17.7942 27.3635 17.7092 27.8113 17.7092C28.0974 17.7092 28.3842 17.7459 28.6703 17.8168C28.9563 17.8885 29.1982 17.9777 29.395 18.0853L30.1238 15.1023C30.2147 14.7296 29.9812 14.3493 29.6043 14.2751C29.6018 14.2751 29.5984 14.2743 29.5959 14.2734C29.3182 14.22 29.028 14.1934 28.7236 14.1934H28.7245Z" fill="#22B98E"/>
<path d="M75.9109 16.4816C75.6365 16.0722 75.308 15.7011 74.9177 15.3742C74.4699 14.9981 73.9512 14.7079 73.3607 14.5019C72.7703 14.2959 72.1165 14.1934 71.401 14.1934C70.1668 14.1934 69.0569 14.5069 68.0728 15.1332C67.0888 15.7595 66.3099 16.6276 65.7378 17.7367C65.1649 18.8467 64.8789 20.1084 64.8789 21.5219C64.8789 22.9354 65.1649 24.1971 65.7378 25.3062C66.3099 26.4162 67.0705 27.2926 68.0195 27.9373C68.9676 28.5811 70.0234 28.9038 71.1867 28.9038C71.8672 28.9038 72.506 28.7962 73.1064 28.5819C73.706 28.3667 74.2514 28.0857 74.7434 27.7363C75.192 27.4186 75.5698 27.0533 75.8842 26.6463V28.6353H77.8222C78.6045 28.6353 79.2391 28.0006 79.2391 27.2184V15.8279C79.2391 15.089 78.6395 14.4894 77.9006 14.4894H75.9101V16.4833L75.9109 16.4816ZM74.1388 25.413C73.5484 25.7891 72.8679 25.9767 72.099 25.9767C71.3301 25.9767 70.6538 25.7891 70.0726 25.413C69.4905 25.0369 69.0394 24.514 68.7166 23.8427C68.3947 23.1714 68.2338 22.3983 68.2338 21.5211C68.2338 20.6438 68.3947 19.9016 68.7166 19.2394C69.0385 18.5773 69.4905 18.0586 70.0726 17.6825C70.6538 17.3064 71.3293 17.1188 72.099 17.1188C72.8687 17.1188 73.5484 17.3072 74.1388 17.6825C74.7292 18.0578 75.1895 18.5773 75.5214 19.2394C75.8525 19.9016 76.0176 20.6621 76.0176 21.5211C76.0176 22.38 75.8517 23.1714 75.5214 23.8427C75.1904 24.514 74.7292 25.0369 74.1388 25.413Z" fill="#22B98E"/>
<path d="M92.4992 14.4885L88.6499 24.2588L85.3709 15.6468C85.1057 14.9497 84.4369 14.4885 83.6905 14.4885H81.333L87.2914 28.6344H89.7606L95.0944 16.57C95.5281 15.5901 94.81 14.4885 93.7385 14.4885H92.4984H92.4992Z" fill="#22B98E"/>
<path d="M46.5831 21.2794H45.7967C45.6524 20.4246 45.3756 19.6341 44.9611 18.9086C44.3257 17.7994 43.4534 16.9271 42.3443 16.2917C41.2343 15.6571 39.9817 15.3394 38.5866 15.3394C37.1914 15.3394 35.9114 15.6571 34.8014 16.2917C33.6915 16.9271 32.815 17.7994 32.1712 18.9086C31.7501 19.6332 31.4699 20.4246 31.3239 21.2794H30.3658C29.9104 21.2794 29.541 21.6488 29.541 22.1041V23.2466C29.541 23.7019 29.9104 24.0714 30.3658 24.0714H31.3181C31.4624 24.9403 31.7442 25.7434 32.1712 26.4789C32.8158 27.5889 33.6923 28.4612 34.8014 29.0958C35.9105 29.7312 37.1723 30.0481 38.5866 30.0481C40.0009 30.0481 41.2343 29.7304 42.3443 29.0958C43.4534 28.4612 44.3257 27.588 44.9611 26.4789C45.3822 25.7434 45.6599 24.9403 45.8025 24.0714H46.5831C47.0417 24.0714 47.4137 23.6994 47.4137 23.2408V22.1117C47.4137 21.653 47.0417 21.2811 46.5831 21.2811V21.2794ZM36.506 26.5323C35.8888 26.1387 35.4093 25.6108 35.0699 24.9487C34.7297 24.2865 34.5596 23.5352 34.5596 22.6937C34.5596 21.8523 34.7297 21.0968 35.0699 20.4255C35.4093 19.7541 35.8888 19.2263 36.506 18.8418C37.1231 18.4574 37.8169 18.2648 38.5866 18.2648C38.9068 18.2648 39.2087 18.3065 39.4997 18.3732C38.2689 18.6817 37.294 19.9901 37.0363 21.663L38.9277 22.17L36.998 23.0957C37.1956 25.1747 38.489 26.7816 40.0585 26.7816C40.1093 26.7816 40.1585 26.7741 40.2086 26.7716C39.7174 27.0043 39.177 27.1235 38.5858 27.1235C37.816 27.1235 37.1231 26.9267 36.5051 26.5331L36.506 26.5323Z" fill="#0551D8"/>
<path d="M61.561 25.2481C61.2566 25.0638 60.8596 25.0162 60.4969 25.1196C60.1633 25.2155 59.8998 25.4257 59.7547 25.7126C58.1811 28.8231 55.4366 31.2782 51.8174 32.8117C48.631 34.1627 45.0901 34.6914 41.8478 34.3036C39.6304 34.0385 37.6265 33.1553 36.0512 31.7493C35.5067 31.2623 34.7211 31.2581 34.2258 31.7385C33.9714 31.9853 33.8238 32.3556 33.8313 32.7309C33.8388 33.0778 33.9748 33.388 34.2158 33.6023C35.9645 35.1634 38.0768 36.23 40.3251 36.687C41.4117 36.9072 42.555 37.0172 43.7792 37.0172C44.624 37.0172 45.5063 36.9647 46.4353 36.8605C50.6074 36.3926 54.4334 34.8782 57.5006 32.4815C59.3919 31.0038 60.953 29.1125 62.0146 27.0143C62.344 26.363 62.1497 25.6033 61.5618 25.2472L61.561 25.2481Z" fill="#0551D8"/>
<path d="M62.5363 17.6442H62.5529V4.7526C62.5529 3.77524 61.7607 2.98218 60.7825 2.98218H59.2022V11.951C59.1305 11.9068 59.0605 11.8601 58.9862 11.8176C57.8763 11.183 56.6237 10.8653 55.2286 10.8653C53.8334 10.8653 52.5533 11.183 51.4434 11.8176C50.3334 12.4531 49.457 13.3253 48.8132 14.4345C48.1686 15.5444 47.8467 16.8053 47.8467 18.2196C47.8467 19.634 48.1686 20.8949 48.8132 22.004C49.4578 23.1139 50.3343 23.9862 51.4434 24.6208C52.5525 25.2563 53.8142 25.5732 55.2286 25.5732C56.6429 25.5732 57.8763 25.2555 58.9862 24.6208C60.0954 23.9862 60.9676 23.1131 61.6031 22.004C62.2377 20.8949 62.5554 19.6331 62.5554 18.2196C62.5554 18.0245 62.5479 17.8327 62.5363 17.6434V17.6442ZM53.1479 22.0582C52.5308 21.6646 52.0513 21.1367 51.7119 20.4746C51.3717 19.8124 51.2016 19.0611 51.2016 18.2196C51.2016 17.3782 51.3717 16.6227 51.7119 15.9514C52.0513 15.2801 52.5308 14.7522 53.1479 14.3677C53.765 13.9833 54.4589 13.7907 55.2286 13.7907C55.658 13.7907 56.0575 13.8574 56.4344 13.9766C55.2352 14.1209 54.2412 15.3034 53.8835 16.8987L55.8423 17.4499L53.7517 18.504C53.8559 20.623 55.0384 22.3075 56.5137 22.4285C56.1142 22.5694 55.6889 22.6486 55.2286 22.6486C54.4589 22.6486 53.7659 22.4518 53.1479 22.0582Z" fill="#0551D8"/>
</g>
<defs>
<clipPath id="clip0_138_34">
<rect width="98.2062" height="40" fill="white"/>
</clipPath>
</defs>
</svg>
