<svg width="32" height="32" viewBox="0 0 32 32" fill="none" xmlns="http://www.w3.org/2000/svg">
<path d="M12.5527 6.77985L23.2207 6.7818C23.7506 6.78222 24.2591 6.99305 24.6338 7.36774C25.0085 7.74247 25.2184 8.25092 25.2188 8.78082L25.2207 19.4478C25.2207 19.7105 25.1689 19.9707 25.0684 20.2134C24.9678 20.4561 24.8205 20.6771 24.6348 20.8629C24.4491 21.0484 24.2288 21.196 23.9863 21.2964C23.7437 21.3969 23.4833 21.4487 23.2207 21.4488C22.9581 21.4488 22.6977 21.3969 22.4551 21.2964C22.2124 21.1959 21.9914 21.0486 21.8057 20.8629C21.6199 20.6771 21.4726 20.4562 21.3721 20.2134C21.2715 19.9707 21.2197 19.7105 21.2197 19.4478V13.6099L10.3447 24.4849C9.96976 24.8599 9.46093 25.0707 8.93066 25.0709C8.40023 25.0709 7.8907 24.86 7.51562 24.4849C7.14079 24.1099 6.93066 23.6011 6.93066 23.0709C6.93073 22.5406 7.1407 22.0318 7.51562 21.6568L18.3916 10.7818L12.5527 10.7808C12.0222 10.7808 11.5129 10.57 11.1377 10.1949C10.7625 9.81969 10.5518 9.31045 10.5518 8.77985C10.5518 8.24943 10.7627 7.74091 11.1377 7.36578C11.5129 6.99059 12.0221 6.77985 12.5527 6.77985Z" fill="black"/>
</svg>
