<svg width="32" height="33" viewBox="0 0 32 33" fill="none" xmlns="http://www.w3.org/2000/svg">
<g clip-path="url(#clip0_122_2)">
<path d="M30.8948 19.2803C31.6285 17.9991 32 16.544 32 14.9573C32 14.8445 31.9978 14.7317 31.9935 14.621C31.9964 14.5765 31.9971 14.5305 31.9971 14.4852V3.90119C31.9971 1.74975 30.2467 0 28.0952 0H26.7974C25.4451 0 24.3492 1.09656 24.3492 2.44822V6.50463C24.0819 6.48163 23.811 6.47085 23.5351 6.47085C21.9484 6.47085 20.494 6.84308 19.2106 7.57675C17.9258 8.31258 16.8968 9.33657 16.1509 10.6207C15.8678 11.1086 15.6378 11.6224 15.4611 12.1584C15.0666 11.8193 14.6376 11.5146 14.1741 11.2487C12.8921 10.515 11.4449 10.1435 9.87335 10.1435C8.3018 10.1435 6.8323 10.5158 5.54891 11.2494C4.26408 11.9853 3.23507 13.0093 2.48918 14.2934C2.31672 14.5909 2.16294 14.8998 2.02928 15.2182C0.845774 15.663 0 16.807 0 18.1457V19.0834C0 20.4164 0.838588 21.5561 2.01563 22.0052C2.15288 22.3365 2.31169 22.6577 2.49061 22.966C2.92464 23.7133 3.45783 24.3701 4.07797 24.9356C3.7079 25.5205 3.50885 26.2111 3.52322 26.9218C3.54262 27.8804 3.95581 28.7886 4.65643 29.4138C6.41552 30.9839 8.5454 32.0575 10.8154 32.5188C11.8775 32.7337 12.964 32.8386 14.1374 32.8386C14.9142 32.8386 15.7399 32.7904 16.5914 32.6949C20.4667 32.2601 24.0345 30.8431 26.9095 28.5968C28.7448 27.1632 30.2603 25.3265 31.2922 23.2843C31.9705 21.9441 31.7593 20.4107 30.8503 19.3529C30.8646 19.3285 30.8804 19.3055 30.8948 19.2811V19.2803Z" fill="#3FBF9B"/>
<path d="M16.4391 17.4688H15.7938C15.6759 16.7675 15.4482 16.1179 15.1075 15.5229C14.5859 14.6125 13.8694 13.896 12.959 13.3743C12.0478 12.8534 11.0195 12.5925 9.87409 12.5925C8.72867 12.5925 7.6781 12.8534 6.76693 13.3743C5.85577 13.896 5.13647 14.6125 4.60759 15.5229C4.26195 16.1179 4.03128 16.7675 3.912 17.4688H3.12515C2.75148 17.4688 2.44824 17.7721 2.44824 18.1457V19.0835C2.44824 19.4572 2.75148 19.7604 3.12515 19.7604H3.90697C4.02553 20.474 4.25692 21.1336 4.60759 21.7372C5.13647 22.6484 5.85577 23.3648 6.76693 23.8858C7.6781 24.4075 8.71358 24.6676 9.87409 24.6676C11.0346 24.6676 12.0478 24.4068 12.959 23.8858C13.8694 23.3648 14.5859 22.6484 15.1075 21.7372C15.4532 21.1336 15.6817 20.474 15.7981 19.7604H16.4391C16.8156 19.7604 17.121 19.455 17.121 19.0785V18.1515C17.121 17.775 16.8156 17.4696 16.4391 17.4696V17.4688ZM8.16674 21.7811C7.66013 21.4577 7.26635 21.0244 6.98754 20.4811C6.70801 19.9379 6.56861 19.3206 6.56861 18.6301C6.56861 17.9395 6.70801 17.3187 6.98754 16.7682C7.26635 16.2171 7.65942 15.7838 8.16674 15.4683C8.67334 15.1521 9.24246 14.994 9.87481 14.994C10.1378 14.994 10.3857 15.0278 10.625 15.0831C9.61468 15.3368 8.81418 16.4111 8.60292 17.7836L10.1558 18.1996L8.57202 18.9599C8.73442 20.6673 9.79577 21.9859 11.0849 21.9859C11.1266 21.9859 11.1668 21.9801 11.2078 21.9772C10.8047 22.1684 10.3613 22.2661 9.87553 22.2661C9.24389 22.2661 8.67478 22.1044 8.16746 21.7811H8.16674Z" fill="#0551D8"/>
<path d="M28.7355 20.7277C28.4854 20.5768 28.1599 20.5372 27.8624 20.622C27.5886 20.7004 27.3723 20.8735 27.253 21.1092C25.9617 23.6631 23.7083 25.6787 20.7369 26.9377C18.1205 28.0464 15.2139 28.4812 12.5522 28.1629C10.7321 27.9451 9.0865 27.2201 7.79377 26.066C7.34681 25.6665 6.70224 25.6629 6.2948 26.0574C6.08569 26.26 5.96497 26.564 5.97144 26.8723C5.97719 27.1576 6.08929 27.4112 6.2869 27.588C7.72263 28.8692 9.45657 29.7452 11.3019 30.1203C12.1937 30.3014 13.1329 30.3912 14.1374 30.3912C14.8309 30.3912 15.5552 30.3481 16.3183 30.2626C19.7431 29.8781 22.884 28.635 25.402 26.6682C26.9548 25.4552 28.2368 23.9024 29.1077 22.1799C29.3786 21.6453 29.2184 21.0216 28.7355 20.7291V20.7277Z" fill="#0551D8"/>
<path d="M29.5361 14.4845H29.5497V3.90194C29.5497 3.09928 28.8987 2.44824 28.096 2.44824H26.7983V9.81086C26.7393 9.77421 26.6819 9.73612 26.6208 9.70163C25.7096 9.18066 24.6813 8.91981 23.5359 8.91981C22.3905 8.91981 21.3399 9.18066 20.4287 9.70163C19.5176 10.2233 18.7983 10.9398 18.2694 11.8502C17.7405 12.7614 17.4761 13.7968 17.4761 14.9574C17.4761 16.1179 17.7405 17.1534 18.2694 18.0645C18.7983 18.9757 19.5176 19.6921 20.4287 20.2131C21.3399 20.7348 22.3754 20.9949 23.5359 20.9949C24.6964 20.9949 25.7096 20.7341 26.6208 20.2131C27.5312 19.6921 28.2477 18.9757 28.7693 18.0645C29.2903 17.1541 29.5512 16.1186 29.5512 14.9574C29.5512 14.7971 29.5447 14.6397 29.5354 14.4845H29.5361ZM21.8285 18.1084C21.3219 17.785 20.9282 17.3517 20.6493 16.8084C20.3698 16.2652 20.2304 15.6479 20.2304 14.9574C20.2304 14.2668 20.3698 13.6459 20.6493 13.0955C20.9282 12.5444 21.3212 12.111 21.8285 11.7956C22.3351 11.4794 22.9043 11.3213 23.5366 11.3213C23.8887 11.3213 24.2171 11.3759 24.5261 11.4744C23.5416 11.5929 22.7253 12.5638 22.4322 13.873L24.0403 14.3257L22.3236 15.1909C22.4092 16.9306 23.38 18.3131 24.5915 18.4123C24.2638 18.528 23.9139 18.5927 23.5366 18.5927C22.905 18.5927 22.3359 18.431 21.8285 18.1076V18.1084Z" fill="#0551D8"/>
</g>
<defs>
<clipPath id="clip0_122_2">
<rect width="32" height="32.8379" fill="white"/>
</clipPath>
</defs>
</svg>
