<svg width="48" height="48" viewBox="0 0 48 48" fill="none" xmlns="http://www.w3.org/2000/svg">
<g clip-path="url(#clip0_188_2)">
<path d="M45.7711 28.182C46.8435 26.3092 47.3865 24.1822 47.3865 21.8631C47.3865 21.6982 47.3834 21.5333 47.3771 21.3715C47.3813 21.3064 47.3823 21.2392 47.3823 21.173V5.70236C47.3823 2.55761 44.8237 0 41.6789 0H39.782C37.8052 0 36.2035 1.60284 36.2035 3.57855V9.50778C35.8127 9.47417 35.4167 9.45841 35.0134 9.45841C32.6942 9.45841 30.5683 10.0025 28.6924 11.0749C26.8144 12.1505 25.3103 13.6472 24.22 15.5242C23.8062 16.2374 23.47 16.9884 23.2117 17.7719C22.635 17.2762 22.008 16.8308 21.3305 16.4422C19.4567 15.3698 17.3412 14.8268 15.0441 14.8268C12.747 14.8268 10.599 15.3708 8.72312 16.4432C6.84509 17.5188 5.34099 19.0156 4.25072 20.8925C3.99864 21.3274 3.77386 21.779 3.5785 22.2443C1.84857 22.8945 0.612305 24.5667 0.612305 26.5235V27.8942C0.612305 29.8426 1.83806 31.5084 3.55854 32.1649C3.75916 32.6491 3.99128 33.1186 4.25282 33.5692C4.88723 34.6616 5.6666 35.6216 6.57305 36.4482C6.03212 37.3032 5.74117 38.3126 5.76218 39.3514C5.79054 40.7526 6.39449 42.0802 7.41858 42.994C9.98984 45.289 13.1031 46.8583 16.4211 47.5326C17.9736 47.8467 19.5617 48 21.2769 48C22.4123 48 23.6192 47.9296 24.8639 47.7899C30.5284 47.1545 35.7434 45.0832 39.9459 41.7998C42.6285 39.7043 44.8436 37.0196 46.352 34.0345C47.3435 32.0756 47.0347 29.8342 45.706 28.2881C45.727 28.2523 45.7501 28.2177 45.7711 28.182Z" fill="#3BCEA4"/>
<path d="M41.3385 30.1432C41.7733 30.0193 42.2491 30.0769 42.6146 30.2973V30.3002C43.3203 30.7277 43.5544 31.6385 43.1585 32.4199C41.8856 34.9374 40.0124 37.2075 37.7428 38.9804C34.0624 41.8552 29.4707 43.6729 24.4648 44.2348C23.3494 44.3598 22.2908 44.4232 21.2773 44.4233C19.8089 44.4233 18.4355 44.2911 17.132 44.0264C14.4349 43.4781 11.9007 42.1978 9.80214 40.3251C9.5133 40.0667 9.34948 39.6958 9.34108 39.2788C9.33171 38.8283 9.50802 38.3844 9.81356 38.0883C10.4091 37.5116 11.3514 37.5171 12.0047 38.1011C13.894 39.7876 16.2991 40.8475 18.9591 41.1658C22.8496 41.6312 27.0996 40.9951 30.9239 39.3744C35.2667 37.5342 38.5604 34.5881 40.4478 30.8555C40.6221 30.511 40.9384 30.2577 41.3385 30.1432Z" fill="#0551D8"/>
<path fill-rule="evenodd" clip-rule="evenodd" d="M15.0451 18.4068C16.7193 18.4068 18.2226 18.7873 19.5544 19.5487C20.885 20.3112 21.9322 21.3586 22.6947 22.6891C23.1926 23.5588 23.526 24.5089 23.6982 25.534H24.6418L24.8416 25.554C25.296 25.6469 25.638 26.0501 25.6381 26.5318V27.8864C25.6381 28.4366 25.1919 28.8839 24.6418 28.8842H23.7039C23.5338 29.927 23.1999 30.8912 22.6947 31.7733C21.9322 33.1051 20.8851 34.1522 19.5544 34.9137C18.2225 35.6752 16.7414 36.057 15.0451 36.057C13.3488 36.057 11.8348 35.6762 10.503 34.9137C9.17136 34.1522 8.11993 33.105 7.34695 31.7733C6.89846 31.0013 6.58412 30.1664 6.39628 29.271L6.32348 28.8842H5.1801C4.63425 28.8841 4.19127 28.4408 4.19089 27.895V26.5232C4.19108 25.9773 4.63414 25.5341 5.1801 25.534H6.33062C6.50498 24.5089 6.84176 23.5588 7.34695 22.6891C8.11996 21.3586 9.17137 20.3112 10.503 19.5487C11.8348 18.7873 13.3709 18.4068 15.0451 18.4068ZM15.0465 21.9169C14.1222 21.9169 13.2905 22.1484 12.55 22.6106C11.8084 23.0717 11.2331 23.7049 10.8256 24.5105C10.4172 25.3149 10.2133 26.2222 10.2132 27.2312C10.2132 28.2406 10.417 29.1436 10.8256 29.9376C11.2331 30.7316 11.8095 31.3649 12.55 31.8375C13.2914 32.31 14.1249 32.5456 15.048 32.5456C15.6689 32.5455 16.2426 32.4373 16.7709 32.223L16.995 32.1245C16.9352 32.1287 16.876 32.1373 16.8151 32.1373C14.9308 32.1373 13.3798 30.2093 13.1423 27.7137L15.4576 26.6017L13.1866 25.9936C13.4955 23.9877 14.6661 22.4175 16.1428 22.0468C15.8805 21.9861 15.6111 21.9431 15.3306 21.9254L15.0465 21.9169Z" fill="#0551D8"/>
<path fill-rule="evenodd" clip-rule="evenodd" d="M41.6797 3.57858C42.8529 3.57858 43.8051 4.53079 43.8051 5.70404V21.1717H43.7851C43.7988 21.3985 43.8065 21.6286 43.8065 21.8626C43.8065 23.5599 43.426 25.074 42.6646 26.4047C41.9021 27.7364 40.8548 28.7836 39.5242 29.5451C38.1925 30.3065 36.7111 30.6884 35.015 30.6885C33.3186 30.6885 31.8047 30.3076 30.4729 29.5451C29.1411 28.7836 28.0898 27.7365 27.3168 26.4047C26.5437 25.0729 26.1577 23.5589 26.1577 21.8626C26.1578 20.1666 26.5439 18.6536 27.3168 17.3219C28.0898 15.9911 29.141 14.9427 30.4729 14.1802C31.8046 13.4188 33.3408 13.0382 35.015 13.0382L35.6345 13.0553C37.062 13.1387 38.3589 13.5138 39.5242 14.1802C39.6133 14.2304 39.6967 14.2866 39.7826 14.34V3.57858H41.6797ZM35.015 16.5483C34.0909 16.5484 33.2587 16.78 32.5184 17.242C31.7771 17.7031 31.2029 18.3365 30.7955 19.1419C30.387 19.9463 30.1831 20.8535 30.1831 21.8626C30.1831 22.872 30.3869 23.775 30.7955 24.569C31.2029 25.3629 31.7781 25.9964 32.5184 26.469C33.2597 26.9415 34.092 27.1768 35.015 27.177C35.5664 27.177 36.0791 27.082 36.558 26.9129C34.7871 26.7679 33.3671 24.7467 33.2421 22.2038L35.7515 20.9405L33.402 20.2782C33.8305 18.3645 35.0234 16.9457 36.4624 16.7724C36.0107 16.6285 35.5296 16.5483 35.015 16.5483Z" fill="#0551D8"/>
</g>
<defs>
<clipPath id="clip0_188_2">
<rect width="48" height="48" fill="white"/>
</clipPath>
</defs>
</svg>
